<svg width="16" height="16" viewBox="0 0 16 16" fill="none" xmlns="http://www.w3.org/2000/svg">
<g clip-path="url(#clip0_49_163)">
<path d="M10.7485 9.50941C10.8275 8.85166 10.8039 8.75516 11.2938 8.86166L11.4182 8.87266C11.7949 8.88978 12.2878 8.81203 12.5772 8.67753C13.2004 8.38841 13.5699 7.90541 12.9554 8.03228C11.5535 8.32141 11.4572 7.84691 11.4572 7.84691C12.9375 5.65053 13.5564 2.86253 13.0223 2.18003C11.5655 0.318532 9.04378 1.19878 9.00153 1.22166L8.98803 1.22428C8.71103 1.16666 8.40115 1.13241 8.0529 1.12678C7.41853 1.11641 6.93715 1.29316 6.57203 1.57003C6.57203 1.57003 2.0734 -0.283343 2.28265 3.90078C2.32715 4.79091 3.55853 10.636 5.02715 8.87053C5.5639 8.22503 6.08265 7.67916 6.08265 7.67916C6.34028 7.85028 6.64865 7.93753 6.97215 7.90616L6.99715 7.88491C6.9894 7.96503 6.99278 8.04341 7.00728 8.13616C6.6289 8.55903 6.74015 8.63328 5.98365 8.78891C5.2184 8.94666 5.66803 9.22741 5.9614 9.30078C6.3174 9.38991 7.14053 9.51603 7.6969 8.73716L7.67478 8.82603C7.82328 8.94478 7.81315 9.67941 7.83415 10.2043C7.85515 10.7292 7.8904 11.2189 7.9974 11.5079C8.1044 11.7967 8.23065 12.5405 9.22478 12.3275C10.0555 12.1493 10.6907 11.893 10.7485 9.50941Z" fill="black"/>
<path d="M8.90101 12.8462C8.46126 12.8462 8.17501 12.6762 8.00101 12.512C7.73851 12.2643 7.63438 11.9452 7.57226 11.7546L7.54538 11.675C7.42013 11.3368 7.37776 10.8501 7.35263 10.2233C7.34893 10.1253 7.3458 10.0273 7.34326 9.92933C7.34113 9.8542 7.33851 9.75995 7.33476 9.66108C7.17631 9.73657 7.00817 9.78974 6.83513 9.81908C6.52513 9.87208 6.19188 9.85483 5.84438 9.76795C5.59926 9.7067 5.34451 9.5797 5.19938 9.38345C4.77626 9.75408 4.37263 9.7037 4.15276 9.63045C3.76488 9.50108 3.41776 9.1377 3.09138 8.5192C2.85901 8.07883 2.63413 7.50483 2.42301 6.81345C2.05551 5.60933 1.82201 4.34108 1.80126 3.92483C1.73601 2.62145 2.08676 1.68945 2.84376 1.15483C4.03813 0.311202 5.84751 0.807202 6.50713 1.03245C6.95026 0.765327 7.47163 0.635202 8.06088 0.644702C8.37738 0.649827 8.67863 0.677702 8.95851 0.727452C9.25038 0.635702 9.82714 0.503952 10.4873 0.512077C11.7035 0.526577 12.7114 1.00058 13.4018 1.88283C13.8944 2.51233 13.6509 3.83408 13.4618 4.56608C13.1959 5.59545 12.7298 6.69058 12.1573 7.64383C12.3128 7.64495 12.5379 7.6262 12.8581 7.5602C13.4899 7.4297 13.6745 7.76845 13.7246 7.92008C13.9255 8.52845 13.0524 8.98808 12.78 9.11445C12.431 9.27658 11.8621 9.3752 11.3961 9.35383L11.3758 9.35245L11.2534 9.3417L11.2413 9.4437L11.2296 9.54358C11.1984 10.7516 11.0258 11.5166 10.6706 12.0222C10.2985 12.5521 9.78113 12.7007 9.32551 12.7983C9.18612 12.8294 9.04381 12.8454 8.90101 12.8462ZM7.97576 8.44945C8.25963 8.67658 8.28451 9.10395 8.30663 9.9027C8.30938 10.0023 8.31201 10.0967 8.31551 10.1848C8.32626 10.4516 8.35138 11.0763 8.44913 11.3403C8.46301 11.3776 8.47538 11.4156 8.48838 11.4556C8.59738 11.7896 8.65213 11.957 9.12351 11.856C9.51938 11.7712 9.72276 11.6951 9.88201 11.4683C10.1135 11.1386 10.243 10.4757 10.2668 9.49745L10.7483 9.5092L10.27 9.45183L10.284 9.33245C10.3299 8.93895 10.3629 8.65445 10.626 8.46645C10.837 8.31558 11.0776 8.3302 11.2693 8.3647C11.0588 8.20583 11.0005 8.01908 10.985 7.94258L10.9449 7.74483L11.0576 7.57733C11.7076 6.61283 12.2438 5.42745 12.5285 4.32508C12.821 3.19233 12.7318 2.5907 12.6426 2.47695C11.4619 0.968077 9.41401 1.59095 9.20026 1.66183L9.16401 1.68133L8.98276 1.7152L8.88988 1.69595C8.63401 1.64283 8.34976 1.61345 8.04488 1.60845C7.56601 1.60045 7.17976 1.71358 6.86301 1.95395L6.64326 2.12058L6.38813 2.01545C5.84338 1.7927 4.24288 1.34483 3.39838 1.94295C2.92963 2.27495 2.71613 2.92558 2.76363 3.8767C2.77926 4.1907 2.99276 5.37933 3.34451 6.53233C3.83088 8.12558 4.27288 8.6547 4.45738 8.71633C4.48951 8.7272 4.57313 8.6622 4.65626 8.56245C5.19701 7.91208 5.71126 7.36995 5.73288 7.34708L6.01176 7.0537L6.34888 7.2777C6.48476 7.36808 6.63463 7.4192 6.78863 7.42883L7.59276 6.74308L7.47626 7.93183C7.47363 7.95858 7.47238 7.99483 7.48288 8.06233L7.51788 8.2877L7.36626 8.45745L7.34876 8.47708L7.79051 8.68108L7.97576 8.44945Z" fill="black"/>
<path d="M12.9557 8.03222C11.5537 8.32135 11.4573 7.84672 11.4573 7.84672C12.9376 5.65035 13.5563 2.86222 13.0223 2.17985C11.5655 0.318346 9.04372 1.19872 9.0016 1.2216L8.98797 1.22397C8.71097 1.1666 8.40109 1.13235 8.05272 1.12672C7.41834 1.11635 6.9371 1.29297 6.57197 1.56985C6.57197 1.56985 2.07322 -0.283404 2.28247 3.90072C2.32697 4.79085 3.55835 10.636 5.02697 8.87047C5.56372 8.22497 6.08235 7.6791 6.08235 7.6791C6.33997 7.85022 6.64834 7.93747 6.97172 7.9061L6.99685 7.88485C6.9891 7.96497 6.9926 8.04335 7.00685 8.1361C6.6286 8.55897 6.7396 8.63322 5.98335 8.78885C5.21797 8.9466 5.66759 9.22735 5.96122 9.30072C6.31709 9.38985 7.14035 9.51597 7.6966 8.7371L7.67435 8.82597C7.8226 8.94472 7.92672 9.59835 7.90922 10.1908C7.89172 10.7833 7.8801 11.1901 7.99697 11.5078C8.11385 11.8256 8.23022 12.5405 9.22447 12.3275C10.0552 12.1493 10.4857 11.688 10.5457 10.9185C10.5882 10.3713 10.6843 10.4522 10.6905 9.96297L10.7677 9.73135C10.8566 8.9896 10.7818 8.75035 11.2937 8.86172L11.4181 8.8726C11.7948 8.88985 12.2878 8.81197 12.5772 8.67747C13.2005 8.38822 13.5701 7.90535 12.9557 8.03222Z" fill="#336791"/>
<path d="M8.95123 12.5492C8.12236 12.5493 7.85986 11.893 7.75236 11.6246C7.59523 11.2313 7.56123 9.70484 7.59623 8.45297C7.59857 8.41117 7.61711 8.37194 7.64793 8.3436C7.67874 8.31527 7.71939 8.30007 7.76123 8.30124C7.80308 8.30241 7.84281 8.31986 7.87199 8.34988C7.90117 8.37989 7.91749 8.42011 7.91748 8.46197C7.87711 9.90584 7.93448 11.2142 8.05073 11.5052C8.23236 11.9592 8.50773 12.3563 9.28661 12.1896C10.026 12.031 10.3029 11.7506 10.4261 11.0358C10.5209 10.4872 10.7079 8.92659 10.7309 8.61859C10.734 8.57611 10.7539 8.53662 10.7862 8.50882C10.8185 8.48102 10.8605 8.46718 10.903 8.47034C10.9455 8.47351 10.985 8.49342 11.0128 8.5257C11.0406 8.55798 11.0544 8.59998 11.0512 8.64247C11.0272 8.96297 10.841 10.5207 10.7426 11.0905C10.597 11.9348 10.2206 12.3178 9.35386 12.5037C9.22161 12.5329 9.08666 12.5482 8.95123 12.5492ZM4.45736 9.34359C4.38491 9.34361 4.31296 9.33174 4.24436 9.30847C3.70598 9.12884 3.19323 8.25209 2.72023 6.70234C2.36023 5.52259 2.13211 4.29134 2.11211 3.89122C2.05273 2.70497 2.35836 1.86559 3.02023 1.39659C4.32973 0.468719 6.53273 1.35234 6.62586 1.39034C6.66494 1.4067 6.69597 1.43783 6.71221 1.47696C6.72844 1.51609 6.72856 1.56005 6.71254 1.59927C6.69652 1.63849 6.66565 1.66978 6.62666 1.68635C6.58767 1.70292 6.54371 1.70341 6.50436 1.68772V1.68784C6.48311 1.67909 4.37061 0.832844 3.20536 1.65922C2.63936 2.06059 2.37948 2.80609 2.43286 3.87534C2.44973 4.21234 2.66286 5.41422 3.02748 6.60872C3.44973 7.99209 3.93036 8.86522 4.34598 9.00372C4.41111 9.02559 4.60961 9.09172 4.89361 8.75047C5.42761 8.10797 5.91823 7.59522 5.92311 7.59009C5.95298 7.56115 5.99291 7.54491 6.03451 7.54479C6.07611 7.54467 6.11613 7.56068 6.14617 7.58946C6.17621 7.61823 6.19392 7.65753 6.19559 7.6991C6.19726 7.74066 6.18275 7.78125 6.15511 7.81234C6.15023 7.81734 5.66711 8.32247 5.14061 8.95584C4.89123 9.25559 4.65211 9.34359 4.45736 9.34359ZM11.4474 7.98997C11.4182 7.99001 11.3896 7.9821 11.3645 7.9671C11.3395 7.95209 11.3191 7.93055 11.3054 7.90479C11.2917 7.87903 11.2853 7.85003 11.2869 7.8209C11.2884 7.79177 11.2979 7.76362 11.3142 7.73947C12.8106 5.51897 13.3359 2.83609 12.886 2.26134C12.3197 1.53784 11.5201 1.15984 10.5095 1.13822C9.76111 1.12197 9.16623 1.31309 9.06911 1.34647L9.04473 1.35634C8.94698 1.38709 8.87198 1.33347 8.84373 1.27084C8.82764 1.23496 8.82521 1.19444 8.8369 1.15689C8.84859 1.11934 8.87361 1.08736 8.90723 1.06697L8.95048 1.04922L8.94836 1.04984L8.95061 1.04909C9.11573 0.988718 9.71961 0.807468 10.4677 0.816093C11.5861 0.827843 12.5099 1.25922 13.1391 2.06322C13.4369 2.44372 13.4375 3.32034 13.141 4.46822C12.8387 5.63847 12.27 6.89634 11.5807 7.91909C11.5661 7.94098 11.5462 7.95889 11.5229 7.97126C11.4997 7.98362 11.4737 7.99005 11.4474 7.98997ZM11.5237 9.01784C11.2682 9.01784 11.0392 8.98197 10.9021 8.89972C10.7611 8.81534 10.7342 8.70047 10.7307 8.63959C10.6922 7.96409 11.065 7.84647 11.2551 7.79284C11.2286 7.75284 11.1909 7.70572 11.152 7.65709C11.0411 7.51859 10.8894 7.32884 10.7724 7.04509C10.7541 7.00084 10.6966 6.89772 10.6301 6.77847C10.2697 6.13234 9.51998 4.78772 10.0016 4.09909C10.2246 3.78047 10.6684 3.65509 11.3224 3.72509C11.13 3.13897 10.2137 1.30534 8.03998 1.26972C7.38611 1.25872 6.84986 1.45984 6.44698 1.86659C5.54486 2.77772 5.57761 4.42622 5.57798 4.44259C5.57853 4.46368 5.57492 4.48467 5.56736 4.50436C5.5598 4.52405 5.54844 4.54206 5.53392 4.55735C5.51939 4.57265 5.502 4.58494 5.48273 4.59352C5.46346 4.6021 5.44269 4.60679 5.42161 4.60734C5.40052 4.60789 5.37953 4.60429 5.35984 4.59672C5.34015 4.58916 5.32214 4.5778 5.30685 4.56328C5.29155 4.54876 5.27926 4.53136 5.27068 4.51209C5.2621 4.49282 5.25741 4.47205 5.25686 4.45097C5.25486 4.37784 5.22111 2.64797 6.21873 1.64047C6.68561 1.16897 7.30011 0.936219 8.04523 0.948344C9.43623 0.971218 10.3314 1.67822 10.8375 2.26747C11.389 2.90947 11.6595 3.61772 11.6817 3.85397C11.6984 4.02972 11.5722 4.06497 11.5467 4.07009L11.4889 4.07147C10.847 3.96872 10.4352 4.03997 10.265 4.28334C9.89861 4.80684 10.6079 6.07872 10.9107 6.62197C10.9881 6.76047 11.0439 6.86059 11.0694 6.92247C11.1689 7.16372 11.2986 7.32584 11.4029 7.45609C11.4945 7.57072 11.574 7.66997 11.6025 7.78672C11.6156 7.80984 11.8029 8.08659 12.9135 7.85734C13.1919 7.79997 13.3587 7.84909 13.4097 8.00334C13.5101 8.30697 12.947 8.66097 12.6352 8.80584C12.3555 8.93572 11.9096 9.01784 11.5237 9.01784ZM11.0511 8.61309C11.0862 8.64872 11.2625 8.70997 11.6276 8.69434C11.9521 8.68034 12.2945 8.60972 12.5 8.51447C12.7627 8.39247 12.938 8.25609 13.0289 8.16297L12.9784 8.17222C12.2682 8.31884 11.766 8.29934 11.4856 8.11409C11.4668 8.10163 11.4486 8.08815 11.4312 8.07372C11.4009 8.08572 11.3727 8.09359 11.3527 8.09922C11.1936 8.14384 11.0291 8.18997 11.0511 8.61309ZM6.46398 9.51047C6.28761 9.51047 6.10198 9.48659 5.91236 9.43897C5.71598 9.38984 5.38473 9.24197 5.38986 8.99909C5.39548 8.72647 5.79186 8.64472 5.94123 8.61397C6.48023 8.50297 6.51536 8.45847 6.68386 8.24459C6.73298 8.18222 6.79411 8.10459 6.87736 8.01147C7.00111 7.87309 7.13636 7.80284 7.27936 7.80284C7.37886 7.80284 7.46061 7.83672 7.51448 7.85897C7.68648 7.93022 7.82998 8.10247 7.88898 8.30872C7.94223 8.49472 7.91686 8.67372 7.81748 8.81272C7.49148 9.26934 7.02348 9.51047 6.46398 9.51047ZM5.73686 9.01297C5.78536 9.05034 5.88236 9.10034 5.99023 9.12747C6.15448 9.16847 6.31373 9.18934 6.46398 9.18934C6.92173 9.18934 7.28911 8.99972 7.55611 8.62609C7.61173 8.54809 7.59511 8.44922 7.58023 8.39709C7.54898 8.28809 7.47148 8.18897 7.39161 8.15572C7.34823 8.13772 7.31236 8.12397 7.27936 8.12397C7.26161 8.12397 7.20773 8.12397 7.11686 8.22559C7.04011 8.31134 6.98498 8.38134 6.93611 8.44322C6.72636 8.70959 6.63023 8.79997 6.00598 8.92859C5.85373 8.96009 5.77561 8.99184 5.73686 9.01297ZM6.97211 8.27197C6.93376 8.27191 6.8967 8.25815 6.86761 8.23316C6.83853 8.20818 6.81933 8.17362 6.81348 8.13572C6.80937 8.10905 6.8067 8.08218 6.80548 8.05522C6.39623 8.04747 6.00148 7.87197 5.70186 7.55922C5.32298 7.16384 5.15048 6.61609 5.22873 6.05647C5.31373 5.44872 5.28198 4.91222 5.26486 4.62397C5.2606 4.56468 5.25798 4.50528 5.25698 4.44584C5.25723 4.39509 5.25823 4.26022 5.70886 4.03184C5.86911 3.95059 6.19048 3.80884 6.54148 3.77247C7.12323 3.71247 7.50661 3.97147 7.62136 4.50197C7.93111 5.93447 7.64586 6.56809 7.43761 7.03072C7.39873 7.11672 7.36211 7.19822 7.33286 7.27697L7.30698 7.34659C7.19698 7.64159 7.10186 7.89647 7.13111 8.08697C7.13754 8.12908 7.127 8.17202 7.10181 8.20638C7.07662 8.24073 7.03883 8.26369 6.99673 8.27022L6.97211 8.27197ZM5.57923 4.49022L5.58561 4.60497C5.60336 4.90434 5.63636 5.46159 5.54686 6.10109C5.48236 6.56259 5.62336 7.01322 5.93373 7.33709C6.17898 7.59309 6.50198 7.73434 6.83386 7.73434H6.84073C6.87798 7.57772 6.93961 7.41247 7.00598 7.23434L7.03173 7.16522C7.06486 7.07622 7.10361 6.99009 7.14461 6.89897C7.34511 6.45347 7.59461 5.89897 7.30723 4.56984C7.25023 4.30672 7.11223 4.15434 6.88536 4.10409C6.41936 4.00109 5.72498 4.35159 5.57923 4.49022ZM6.54873 4.42209C6.54073 4.47884 6.65286 4.63047 6.79886 4.65072C6.94473 4.67109 7.06961 4.55259 7.07748 4.49584C7.08536 4.43909 6.97336 4.37647 6.82723 4.35609C6.68136 4.33572 6.55648 4.36522 6.54873 4.42209ZM6.83248 4.70672L6.79148 4.70384C6.70086 4.69122 6.60923 4.63409 6.54661 4.55097C6.52461 4.52184 6.48861 4.46509 6.49573 4.41459C6.50598 4.34047 6.59623 4.29622 6.73736 4.29622C6.76911 4.29622 6.80161 4.29851 6.83486 4.30309C6.91186 4.31384 6.98348 4.33609 7.03636 4.36559C7.12798 4.41684 7.13473 4.47384 7.13061 4.50347C7.11923 4.58509 6.98898 4.70672 6.83248 4.70672ZM6.60198 4.43159C6.60661 4.46659 6.69323 4.58222 6.80623 4.59784L6.83236 4.59972C6.93661 4.59972 7.01461 4.51759 7.02373 4.49072C7.01411 4.47247 6.94711 4.42684 6.81986 4.40934C6.79248 4.40552 6.76488 4.40351 6.73723 4.40334C6.65573 4.40322 6.61211 4.42159 6.60198 4.43159ZM10.9921 4.30622C11 4.36309 10.8881 4.51472 10.742 4.53497C10.596 4.55522 10.4711 4.43684 10.4631 4.37997C10.4554 4.32322 10.5674 4.26059 10.7134 4.24034C10.8594 4.21984 10.9841 4.24959 10.9921 4.30622ZM10.7084 4.56397C10.5677 4.56397 10.4466 4.45459 10.4366 4.38372C10.4251 4.29859 10.5652 4.23384 10.7097 4.21384C10.7416 4.20934 10.7729 4.20709 10.8034 4.20709C10.928 4.20709 11.0105 4.24372 11.0187 4.30259C11.0241 4.34084 10.9949 4.39972 10.9444 4.45272C10.9111 4.48772 10.8411 4.54834 10.7459 4.56147L10.7084 4.56397ZM10.8032 4.26059C10.7752 4.26059 10.7465 4.26263 10.717 4.26672C10.5717 4.28684 10.4854 4.34522 10.4895 4.37647C10.4944 4.41072 10.587 4.51047 10.7082 4.51047L10.7381 4.50834C10.8174 4.49722 10.8769 4.44559 10.9052 4.41572C10.9497 4.36884 10.9675 4.32484 10.9654 4.30972C10.9627 4.29009 10.9092 4.26059 10.8032 4.26059ZM11.2025 7.56722C11.1734 7.5672 11.1448 7.55928 11.1199 7.54431C11.095 7.52934 11.0745 7.50787 11.0609 7.4822C11.0472 7.45653 11.0407 7.42762 11.0421 7.39857C11.0436 7.36951 11.0529 7.34139 11.0691 7.31722C11.4111 6.80634 11.3485 6.28522 11.288 5.78147C11.2621 5.56672 11.2355 5.34484 11.2425 5.13172C11.2495 4.91259 11.2772 4.73184 11.3042 4.55684C11.3361 4.34972 11.3662 4.15384 11.3537 3.92159C11.3528 3.87985 11.3682 3.83939 11.3966 3.80877C11.4249 3.77816 11.4641 3.75978 11.5058 3.75754C11.5475 3.7553 11.5884 3.76937 11.6199 3.79676C11.6514 3.82416 11.671 3.86274 11.6746 3.90434C11.6889 4.16984 11.6547 4.39134 11.6217 4.60572C11.5962 4.77109 11.5699 4.94209 11.5635 5.14197C11.5574 5.33059 11.5815 5.53097 11.607 5.74297C11.6715 6.27884 11.7444 6.88622 11.3361 7.49584C11.3051 7.54209 11.2542 7.56722 11.2025 7.56722Z" fill="white"/>
<path d="M0.35437 12.898C0.533828 12.8688 0.715424 12.8546 0.897245 12.8558C1.17662 12.8558 1.3815 12.9208 1.5115 13.0378C1.63175 13.1418 1.70325 13.301 1.70325 13.4962C1.70325 13.6944 1.64462 13.8504 1.53412 13.9641C1.38462 14.1234 1.14087 14.2047 0.86462 14.2047C0.78012 14.2047 0.70212 14.2014 0.637245 14.1852V15.0628H0.35437V12.898ZM0.637245 13.9543C0.698995 13.9705 0.776995 13.977 0.871245 13.977C1.21237 13.977 1.4205 13.8113 1.4205 13.509C1.4205 13.2198 1.21575 13.08 0.903745 13.08C0.780245 13.08 0.685995 13.0898 0.637245 13.1028V13.9543ZM3.416 14.263C3.416 14.8448 3.01287 15.0984 2.63262 15.0984C2.20687 15.0984 1.87862 14.7864 1.87862 14.289C1.87862 13.7625 2.22312 13.4538 2.65862 13.4538C3.11049 13.4536 3.416 13.782 3.416 14.263ZM2.168 14.2793C2.168 14.6238 2.36625 14.8838 2.64575 14.8838C2.91875 14.8838 3.12337 14.627 3.12337 14.2728C3.12337 14.0063 2.99025 13.6683 2.65212 13.6683C2.314 13.6683 2.168 13.9803 2.168 14.2793ZM3.73762 14.77C3.82212 14.8253 3.97162 14.8838 4.11462 14.8838C4.32262 14.8838 4.42012 14.7798 4.42012 14.6498C4.42012 14.5133 4.339 14.4385 4.12762 14.3605C3.84487 14.2598 3.71162 14.1038 3.71162 13.9153C3.71162 13.6618 3.91637 13.4538 4.25437 13.4538C4.41362 13.4538 4.5535 13.4993 4.64125 13.5513L4.56975 13.7593C4.47301 13.6997 4.36161 13.6682 4.248 13.6683C4.079 13.6683 3.98475 13.7658 3.98475 13.8828C3.98475 14.0128 4.07912 14.0713 4.28387 14.1493C4.55687 14.2533 4.69662 14.3898 4.69662 14.6238C4.69662 14.9 4.48212 15.095 4.10837 15.095C3.93612 15.095 3.77687 15.0528 3.66637 14.9878L3.73762 14.77ZM5.40825 13.0377V13.4894H5.81762V13.7071H5.40825V14.5554C5.40825 14.7504 5.46337 14.8609 5.62275 14.8609C5.67862 14.8618 5.73437 14.8553 5.7885 14.8414L5.8015 15.0559C5.74637 15.0786 5.65849 15.0949 5.54812 15.0949C5.41487 15.0949 5.3075 15.0526 5.23925 14.9746C5.15812 14.8901 5.12875 14.7504 5.12875 14.5652V13.7071H4.885V13.4894H5.12875V13.1124L5.40825 13.0377ZM7.47524 13.4895C7.46862 13.6033 7.46225 13.73 7.46225 13.9218V14.835C7.46225 15.1958 7.39075 15.4168 7.238 15.5534C7.08525 15.6964 6.86424 15.7419 6.666 15.7419C6.4775 15.7419 6.2695 15.6964 6.14262 15.6119L6.21412 15.3942C6.31812 15.4592 6.48062 15.5177 6.67562 15.5177C6.96812 15.5177 7.18262 15.3649 7.18262 14.9684V14.7929H7.17612C7.08837 14.9392 6.91937 15.0561 6.67562 15.0561C6.28562 15.0561 6.00612 14.7246 6.00612 14.289C6.00612 13.756 6.35387 13.4538 6.71462 13.4538C6.98775 13.4538 7.13725 13.5968 7.2055 13.7268H7.212L7.225 13.4895H7.47524ZM7.1795 14.1103C7.1795 14.0615 7.17625 14.0193 7.16325 13.9803C7.11125 13.8145 6.9715 13.678 6.7635 13.678C6.49037 13.678 6.2955 13.9088 6.2955 14.2728C6.2955 14.5815 6.4515 14.8383 6.76025 14.8383C6.93575 14.8383 7.095 14.7278 7.15675 14.5458C7.173 14.497 7.17962 14.4418 7.17962 14.393L7.1795 14.1103ZM7.91712 13.9803C7.91712 13.795 7.91387 13.6358 7.90412 13.4895H8.1545L8.16412 13.7983H8.17712C8.24862 13.587 8.42087 13.4538 8.61262 13.4538C8.64512 13.4538 8.66775 13.457 8.69375 13.4635V13.7333C8.66177 13.7263 8.6291 13.723 8.59637 13.7235C8.39487 13.7235 8.25175 13.8763 8.21287 14.0908C8.20482 14.1348 8.20047 14.1793 8.19987 14.224V15.0625H7.91712V13.9803ZM9.10674 14.328C9.11325 14.7148 9.36012 14.874 9.64612 14.874C9.851 14.874 9.97437 14.8383 10.0816 14.7928L10.1304 14.9975C10.0296 15.043 9.85737 15.095 9.60712 15.095C9.12287 15.095 8.83362 14.7765 8.83362 14.302C8.83362 13.8275 9.11312 13.4536 9.57137 13.4536C10.0849 13.4536 10.2214 13.9054 10.2214 14.1947C10.2214 14.2532 10.2149 14.2987 10.2116 14.3279L9.10674 14.328ZM9.94524 14.1233C9.94837 13.9413 9.87037 13.6585 9.54875 13.6585C9.25949 13.6585 9.13274 13.925 9.10987 14.1233H9.94524Z" fill="black"/>
<path d="M10.5464 14.7181C10.6995 14.8102 10.8746 14.8596 11.0534 14.8611C11.3426 14.8611 11.5116 14.7083 11.5116 14.4873C11.5116 14.2826 11.3946 14.1656 11.0989 14.0518C10.7414 13.9251 10.5204 13.7398 10.5204 13.4311C10.5204 13.0898 10.8031 12.8363 11.2289 12.8363C11.4531 12.8363 11.6156 12.8883 11.7131 12.9436L11.6351 13.1743C11.5072 13.1057 11.3643 13.0699 11.2191 13.0703C10.9201 13.0703 10.8064 13.2491 10.8064 13.3986C10.8064 13.6033 10.9395 13.7041 11.2419 13.8211C11.6124 13.9642 11.8009 14.1428 11.8009 14.4646C11.8009 14.8026 11.5506 15.0951 11.0339 15.0951C10.8226 15.0951 10.5919 15.0333 10.4747 14.9553L10.5464 14.7181ZM13.9946 15.3843C13.7121 15.3101 13.4324 15.2256 13.1561 15.1308C13.1106 15.1146 13.0651 15.0983 13.0229 15.0983C12.5029 15.0788 12.0576 14.6953 12.0576 13.9901C12.0576 13.2881 12.4866 12.8363 13.0781 12.8363C13.6729 12.8363 14.0597 13.2978 14.0597 13.9446C14.0597 14.5068 13.7997 14.8676 13.4357 14.9943V15.0073C13.6535 15.0626 13.8907 15.1146 14.076 15.1471L13.9946 15.3843ZM13.7606 13.9576C13.7606 13.5188 13.5332 13.0669 13.0684 13.0669C12.5906 13.0669 12.3566 13.5089 12.3599 13.9836C12.3566 14.4483 12.6134 14.8676 13.0554 14.8676C13.5072 14.8676 13.7606 14.4581 13.7606 13.9576ZM14.4267 12.8721H14.7096V14.8253H15.6456V15.0626H14.4267V12.8721Z" fill="#336791"/>
</g>
<defs>
<clipPath id="clip0_49_163">
<rect width="16" height="16" fill="white"/>
</clipPath>
</defs>
</svg>
