<svg width="16" height="16" viewBox="0 0 16 16" fill="none" xmlns="http://www.w3.org/2000/svg">
<path d="M7.9999 7.0999C8.64193 7.0999 9.1624 6.57943 9.1624 5.9374C9.1624 5.29537 8.64193 4.7749 7.9999 4.7749C7.35787 4.7749 6.8374 5.29537 6.8374 5.9374C6.8374 6.57943 7.35787 7.0999 7.9999 7.0999Z" fill="#61DAFB"/>
<path d="M7.99995 10.2125C8.91245 11.1 9.81245 11.625 10.5375 11.625C10.775 11.625 11 11.575 11.1875 11.4625C11.8375 11.0875 12.075 10.15 11.85 8.81245C11.8125 8.57495 11.7625 8.33745 11.7 8.08745C11.95 8.01245 12.175 7.93745 12.4 7.86245C13.6625 7.37495 14.3625 6.69995 14.3625 5.96245C14.3625 5.21245 13.6625 4.53745 12.4 4.06245C12.175 3.97495 11.95 3.89995 11.7 3.83745C11.7625 3.58745 11.8125 3.34995 11.85 3.11245C12.0625 1.74995 11.825 0.799951 11.175 0.424951C10.9875 0.312451 10.7625 0.262451 10.525 0.262451C9.81245 0.262451 8.89995 0.787451 7.98745 1.67495C7.08745 0.787451 6.18745 0.262451 5.46245 0.262451C5.22495 0.262451 4.99995 0.312451 4.81245 0.424951C4.16245 0.799951 3.92495 1.73745 4.14995 3.07495C4.18745 3.31245 4.23745 3.54995 4.29995 3.79995C4.04995 3.87495 3.82495 3.94995 3.59995 4.02495C2.33745 4.51245 1.63745 5.18745 1.63745 5.92495C1.63745 6.67495 2.33745 7.34995 3.59995 7.82495C3.82495 7.91245 4.04995 7.98745 4.29995 8.04995C4.23745 8.29995 4.18745 8.53745 4.14995 8.77495C3.93745 10.1125 4.17495 11.0625 4.81245 11.425C4.99995 11.5375 5.22495 11.5875 5.46245 11.5875C6.18745 11.6125 7.08745 11.0875 7.99995 10.2125ZM7.29995 8.52495C7.52495 8.53745 7.76245 8.53745 7.99995 8.53745C8.23745 8.53745 8.47495 8.53745 8.69995 8.52495C8.47495 8.82495 8.23745 9.09995 7.99995 9.36245C7.76245 9.09995 7.52495 8.82495 7.29995 8.52495ZM5.74995 7.23745C5.87495 7.44995 5.98745 7.64995 6.12495 7.84995C5.73745 7.79995 5.37495 7.73745 5.02495 7.66245C5.13745 7.32495 5.26245 6.97495 5.41245 6.62495C5.51245 6.82495 5.62495 7.03745 5.74995 7.23745ZM5.02495 4.22495C5.37495 4.14995 5.73745 4.08745 6.12495 4.03745C5.99995 4.23745 5.87495 4.43745 5.74995 4.64995C5.62495 4.86245 5.51245 5.06245 5.41245 5.27495C5.24995 4.91245 5.12495 4.56245 5.02495 4.22495ZM5.71245 5.93745C5.87495 5.59995 6.04995 5.26245 6.24995 4.92495C6.43745 4.59995 6.64995 4.27495 6.86245 3.94995C7.23745 3.92495 7.61245 3.91245 7.99995 3.91245C8.39995 3.91245 8.77495 3.92495 9.13745 3.94995C9.36245 4.27495 9.56245 4.59995 9.74995 4.92495C9.94995 5.26245 10.125 5.59995 10.2875 5.93745C10.125 6.27495 9.94995 6.61245 9.74995 6.94995C9.56245 7.27495 9.34995 7.59995 9.13745 7.92495C8.76245 7.94995 8.38745 7.96245 7.99995 7.96245C7.59995 7.96245 7.22495 7.94995 6.86245 7.92495C6.63745 7.59995 6.43745 7.27495 6.24995 6.94995C6.04995 6.61245 5.87495 6.27495 5.71245 5.93745ZM10.6 5.26245L10.2625 4.63745C10.1375 4.42495 10.025 4.22495 9.88745 4.02495C10.275 4.07495 10.6375 4.13745 10.9875 4.21245C10.875 4.56245 10.75 4.91245 10.6 5.26245ZM10.6 6.61245C10.75 6.96245 10.875 7.31245 10.9875 7.64995C10.6375 7.72495 10.275 7.78745 9.88745 7.83745C10.0125 7.63745 10.1375 7.43745 10.2625 7.22495C10.375 7.03745 10.4875 6.82495 10.6 6.61245ZM10.8875 10.95C10.7875 11.0125 10.6625 11.0375 10.525 11.0375C9.91245 11.0375 9.14995 10.5375 8.39995 9.78745C8.76245 9.39995 9.11245 8.96245 9.46245 8.47495C10.05 8.42495 10.6125 8.33745 11.1375 8.21245C11.2 8.43745 11.2375 8.66245 11.275 8.88745C11.45 9.94995 11.3125 10.7125 10.8875 10.95ZM11.5375 4.36245C12.9375 4.76245 13.775 5.37495 13.775 5.93745C13.775 6.42495 13.2 6.91245 12.1875 7.29995C11.9875 7.37495 11.7625 7.44995 11.5375 7.51245C11.375 6.99995 11.175 6.47495 10.925 5.93745C11.175 5.39995 11.3875 4.87495 11.5375 4.36245ZM10.5375 0.837451C10.675 0.837451 10.7875 0.862451 10.9 0.924951C11.3125 1.16245 11.4625 1.91245 11.2875 2.98745C11.25 3.19995 11.2 3.42495 11.15 3.66245C10.625 3.54995 10.0625 3.46245 9.47495 3.39995C9.13745 2.91245 8.77495 2.47495 8.41245 2.08745C9.16245 1.34995 9.92495 0.837451 10.5375 0.837451ZM8.69995 3.34995C8.47495 3.33745 8.23745 3.33745 7.99995 3.33745C7.76245 3.33745 7.52495 3.33745 7.29995 3.34995C7.52495 3.04995 7.76245 2.77495 7.99995 2.51245C8.23745 2.77495 8.47495 3.06245 8.69995 3.34995ZM5.11245 0.924951C5.21245 0.862451 5.33745 0.837451 5.47495 0.837451C6.08745 0.837451 6.84995 1.33745 7.59995 2.08745C7.23745 2.47495 6.88745 2.91245 6.53745 3.39995C5.94995 3.44995 5.38745 3.53745 4.86245 3.66245C4.79995 3.43745 4.76245 3.21245 4.72495 2.98745C4.54995 1.92495 4.68745 1.17495 5.11245 0.924951ZM4.46245 7.51245C3.06245 7.11245 2.22495 6.49995 2.22495 5.93745C2.22495 5.44995 2.79995 4.96245 3.81245 4.57495C4.01245 4.49995 4.23745 4.42495 4.46245 4.36245C4.62495 4.87495 4.82495 5.39995 5.07495 5.93745C4.82495 6.47495 4.61245 7.01245 4.46245 7.51245ZM4.72495 8.88745C4.76245 8.67495 4.81245 8.44995 4.86245 8.21245C5.38745 8.32495 5.94995 8.41245 6.53745 8.47495C6.87495 8.96245 7.23745 9.39995 7.59995 9.78745C6.84995 10.525 6.08745 11.0375 5.47495 11.0375C5.33745 11.0375 5.22495 11.0125 5.11245 10.95C4.68745 10.7125 4.54995 9.94995 4.72495 8.88745ZM4.19995 14.0375C4.47495 13.7 4.48745 13.325 4.33745 12.95C4.18745 12.575 3.87495 12.4 3.48745 12.3875C3.02495 12.375 2.54995 12.3875 2.08745 12.3875H1.99995V15.625H2.37495V14.4H2.96245C3.03745 14.4 3.09995 14.425 3.13745 14.4875L3.88745 15.65C3.89995 15.675 3.93745 15.7125 3.96245 15.7125H4.44995C4.14995 15.25 3.86245 14.8125 3.56245 14.3625C3.82495 14.325 4.04995 14.2375 4.19995 14.0375ZM2.37495 14.0125V12.775H2.51245C2.79995 12.775 3.09995 12.7625 3.38745 12.7875C3.72495 12.8 3.96245 13.0625 3.96245 13.4C3.96245 13.7375 3.68745 14 3.34995 14.0125C3.04995 14.025 2.74995 14.0125 2.37495 14.0125ZM7.21245 14.175C7.01245 13.3 6.21245 13.075 5.59995 13.35C5.12495 13.5625 4.91245 13.975 4.89995 14.4875C4.88745 14.875 4.99995 15.225 5.29995 15.4875C5.63745 15.7875 6.04995 15.825 6.47495 15.75C6.71245 15.7 6.92495 15.5875 7.08745 15.4125C7.02495 15.325 6.96245 15.2375 6.89995 15.1625C6.54995 15.4625 6.16245 15.5625 5.73745 15.3625C5.46245 15.225 5.32495 14.8875 5.29995 14.6375H7.23745V14.475C7.24995 14.3625 7.23745 14.2625 7.21245 14.175ZM5.32495 14.375C5.28745 14 5.66245 13.6 6.07495 13.6C6.54995 13.5875 6.84995 13.875 6.86245 14.375H5.32495ZM9.16245 13.2875C8.97495 13.25 8.77495 13.2375 8.58745 13.25C8.28745 13.275 8.02495 13.4125 7.81245 13.6375C7.87495 13.725 7.92495 13.8125 7.99995 13.9125C8.02495 13.8875 8.04995 13.8625 8.07495 13.85C8.27495 13.6625 8.51245 13.5625 8.79995 13.5875C9.02495 13.6 9.23745 13.675 9.29995 13.9C9.34995 14.075 9.33745 14.2625 9.34995 14.45C9.31245 14.45 9.29995 14.4375 9.28745 14.425C8.98745 14.175 8.64995 14.125 8.28745 14.2125C7.94995 14.3 7.73745 14.5625 7.71245 14.9C7.68745 15.2875 7.86245 15.575 8.19995 15.7125C8.41245 15.8 8.64995 15.8 8.87495 15.75C9.04995 15.7125 9.12495 15.6125 9.37495 15.475V15.6375H9.72495C9.72495 15.1375 9.73745 14.525 9.72495 13.95C9.72495 13.5875 9.51245 13.3625 9.16245 13.2875ZM9.33745 14.8625C9.32495 14.9 9.33745 14.9375 9.33745 14.975C9.33745 15.2375 9.27495 15.325 9.02495 15.425C8.84995 15.4875 8.66245 15.5125 8.47495 15.45C8.26245 15.3875 8.11245 15.2 8.11245 14.9875C8.09995 14.775 8.23745 14.5625 8.44995 14.5C8.73745 14.4 8.99995 14.4625 9.23745 14.6375C9.31245 14.7 9.36245 14.7625 9.33745 14.8625ZM11.2875 13.625C11.6125 13.525 11.9125 13.5875 12.1375 13.8625L12.175 13.8875C12.2625 13.8125 12.3375 13.7375 12.4375 13.65C12.4 13.6125 12.3875 13.5875 12.3625 13.55C12 13.1625 11.2875 13.1125 10.85 13.425C10.2375 13.875 10.25 14.75 10.55 15.2125C10.8375 15.65 11.25 15.8 11.7375 15.7375C12.025 15.7 12.2625 15.5625 12.45 15.325C12.3625 15.25 12.275 15.175 12.1875 15.0875C12.1625 15.1125 12.15 15.125 12.1375 15.15C11.8 15.525 11.2375 15.4875 10.9375 15.0875C10.7625 14.85 10.725 14.575 10.775 14.3C10.8 13.9875 10.9625 13.7375 11.2875 13.625ZM13.8875 15.325C13.8625 15.3375 13.85 15.35 13.85 15.35C13.75 15.425 13.65 15.4375 13.5375 15.4C13.425 15.35 13.4125 15.25 13.4 15.15V13.725C13.4 13.7 13.4 13.75 13.4125 13.625H13.8875V13.25H13.3875V12.625H13.0125V13.3H12.6875C12.6625 13.3 12.625 13.325 12.625 13.35C12.6125 13.4375 12.625 13.5 12.625 13.625H13.025V15.225C13.025 15.425 13.075 15.6 13.25 15.7C13.4375 15.8125 13.8 15.7875 13.9625 15.65C13.9875 15.6375 14 15.5875 14 15.575C13.9625 15.5 13.925 15.4125 13.8875 15.325Z" fill="#61DAFB"/>
</svg>
