<svg width="20" height="20" viewBox="0 0 20 20" fill="none" xmlns="http://www.w3.org/2000/svg">
<g clip-path="url(#clip0_56_128)">
<path d="M10 0.400002C4.69705 0.400002 0.399048 4.698 0.399048 10C0.398917 11.2609 0.647164 12.5094 1.12961 13.6743C1.61206 14.8392 2.31926 15.8977 3.21082 16.7892C4.10238 17.6808 5.16084 18.388 6.32575 18.8704C7.49065 19.3529 8.73919 19.6011 10 19.601C15.301 19.601 19.6 15.303 19.6 10C19.6 4.698 15.301 0.400002 10 0.400002ZM9.99905 17.6C9.001 17.6 8.01273 17.4034 7.09065 17.0215C6.16858 16.6396 5.33076 16.0797 4.62504 15.374C3.91931 14.6683 3.3595 13.8305 2.97756 12.9084C2.59563 11.9863 2.39905 10.998 2.39905 10C2.39905 9.00196 2.59563 8.01368 2.97756 7.09161C3.3595 6.16953 3.91931 5.33172 4.62504 4.62599C5.33076 3.92026 6.16858 3.36045 7.09065 2.97852C8.01273 2.59658 9.001 2.4 9.99905 2.4C10.9971 2.4 11.9854 2.59658 12.9074 2.97852C13.8295 3.36045 14.6673 3.92026 15.3731 4.62599C16.0788 5.33172 16.6386 6.16953 17.0205 7.09161C17.4025 8.01368 17.599 9.00196 17.599 10C17.599 10.998 17.4025 11.9863 17.0205 12.9084C16.6386 13.8305 16.0788 14.6683 15.3731 15.374C14.6673 16.0797 13.8295 16.6396 12.9074 17.0215C11.9854 17.4034 10.9971 17.6 9.99905 17.6ZM10 5.5L14.5 10H12V14H8.00005V10H5.50005L10 5.5Z" fill="black"/>
</g>
<defs>
<clipPath id="clip0_56_128">
<rect width="20" height="20" fill="white"/>
</clipPath>
</defs>
</svg>
