<svg width="26" height="26" viewBox="0 0 26 26" fill="none" xmlns="http://www.w3.org/2000/svg">
<path d="M1 13.5C1 7.84358 1 5.01411 2.75705 3.25705C4.51411 1.5 7.34232 1.5 13 1.5C18.6564 1.5 21.4859 1.5 23.2429 3.25705C25 5.01411 25 7.84232 25 13.5C25 19.1564 25 21.9859 23.2429 23.7429C21.4859 25.5 18.6577 25.5 13 25.5C7.34358 25.5 4.51411 25.5 2.75705 23.7429C1 21.9859 1 19.1577 1 13.5Z" stroke="white" stroke-width="1.89474" stroke-linecap="round" stroke-linejoin="round"/>
<path d="M19.9575 6.55264H19.9448M18.6842 13.5C18.6842 15.0076 18.0853 16.4534 17.0194 17.5194C15.9534 18.5854 14.5076 19.1842 13 19.1842C11.4925 19.1842 10.0467 18.5854 8.98066 17.5194C7.91467 16.4534 7.3158 15.0076 7.3158 13.5C7.3158 11.9925 7.91467 10.5467 8.98066 9.48067C10.0467 8.41467 11.4925 7.8158 13 7.8158C14.5076 7.8158 15.9534 8.41467 17.0194 9.48067C18.0853 10.5467 18.6842 11.9925 18.6842 13.5Z" stroke="white" stroke-width="1.89474" stroke-linecap="round" stroke-linejoin="round"/>
</svg>
