<svg width="27" height="24" viewBox="0 0 27 24" fill="none" xmlns="http://www.w3.org/2000/svg">
<path d="M1.35 0H25.65C26.008 0 26.3514 0.140476 26.6046 0.390524C26.8578 0.640573 27 0.979711 27 1.33333V22.6667C27 23.0203 26.8578 23.3594 26.6046 23.6095C26.3514 23.8595 26.008 24 25.65 24H1.35C0.991958 24 0.64858 23.8595 0.395406 23.6095C0.142232 23.3594 0 23.0203 0 22.6667V1.33333C0 0.979711 0.142232 0.640573 0.395406 0.390524C0.64858 0.140476 0.991958 0 1.35 0ZM24.3 5.65067L13.5972 15.1173L2.7 5.62133V21.3333H24.3V5.65067ZM3.38985 2.66667L13.5824 11.5493L23.6277 2.66667H3.38985Z" fill="white"/>
</svg>
