<svg width="16" height="16" viewBox="0 0 16 16" fill="none" xmlns="http://www.w3.org/2000/svg">
<g clip-path="url(#clip0_49_157)">
<path d="M14.2891 6.90674C14.2827 6.90673 14.2764 6.90865 14.271 6.91224L13.9778 7.08349C13.9723 7.08691 13.9677 7.0917 13.9646 7.09739C13.9615 7.10309 13.9599 7.1095 13.96 7.11599V7.45849C13.96 7.47299 13.9669 7.48399 13.9778 7.49124L14.271 7.66224C14.2764 7.66584 14.2827 7.66776 14.2891 7.66776C14.2956 7.66776 14.3019 7.66584 14.3073 7.66224L14.6 7.49124C14.6056 7.48774 14.6102 7.48289 14.6133 7.47714C14.6165 7.47139 14.6182 7.46493 14.6181 7.45836V7.11624C14.6182 7.10971 14.6166 7.10328 14.6134 7.09758C14.6102 7.09188 14.6056 7.08711 14.6 7.08374L14.3071 6.91236C14.3018 6.90879 14.2956 6.90676 14.2891 6.90674ZM7.90252 8.95474C7.84915 8.95474 7.79602 8.96774 7.75077 8.99324L6.30715 9.83411C6.26089 9.86128 6.22255 9.90009 6.19593 9.94666C6.16931 9.99324 6.15533 10.046 6.1554 10.0996V11.7775C6.1554 11.8867 6.21315 11.9887 6.30715 12.0435L6.68715 12.2617C6.87165 12.3527 6.93677 12.3525 7.0199 12.3525C7.29115 12.3525 7.44677 12.1851 7.44677 11.8975V10.2419C7.44661 10.2303 7.44199 10.2193 7.43388 10.2111C7.42576 10.203 7.41479 10.1982 7.40327 10.198H7.21902C7.20746 10.1982 7.19642 10.2029 7.18826 10.2111C7.18009 10.2192 7.17543 10.2303 7.17527 10.2419V11.8979C7.17527 12.0252 7.04165 12.1529 6.82827 12.0437L6.4339 11.8144C6.4194 11.8071 6.41202 11.7886 6.41202 11.7741V10.0959C6.41202 10.0814 6.4194 10.0634 6.4339 10.056L7.87702 9.21886C7.8879 9.21161 7.90615 9.21161 7.92065 9.21886L9.36415 10.056C9.37852 10.0634 9.38565 10.0777 9.38565 10.096V11.774C9.38565 11.7921 9.37852 11.807 9.36415 11.8142L7.92065 12.6551C7.90977 12.6624 7.89152 12.6624 7.87702 12.6551L7.50815 12.4327C7.49727 12.4255 7.48277 12.4219 7.4719 12.4291C7.37065 12.4874 7.3529 12.495 7.25515 12.5277C7.2334 12.535 7.19727 12.5494 7.26952 12.5894L7.75077 12.8771C7.79777 12.9025 7.84827 12.917 7.90252 12.917C7.95677 12.917 8.0109 12.9026 8.05427 12.8845L9.4979 12.0436C9.54423 12.0164 9.58261 11.9775 9.60924 11.9308C9.63586 11.8842 9.6498 11.8313 9.64965 11.7776V10.0996C9.64965 9.99036 9.5919 9.88874 9.4979 9.83411L8.05427 8.99324C8.00777 8.96774 7.95555 8.95449 7.90252 8.95474ZM10.1563 9.72099C10.0822 9.72129 10.0113 9.75098 9.95905 9.80356C9.90685 9.85613 9.87766 9.92728 9.8779 10.0014C9.8777 10.0754 9.9069 10.1465 9.9591 10.1991C10.0113 10.2516 10.0822 10.2813 10.1563 10.2816C10.3084 10.2816 10.4348 10.1542 10.4348 10.0014C10.4344 9.92746 10.405 9.85666 10.3529 9.80424C10.3008 9.75182 10.2302 9.72184 10.1563 9.72099ZM10.1525 9.76836C10.1833 9.76798 10.2139 9.77373 10.2425 9.78528C10.2711 9.79682 10.2971 9.81393 10.319 9.83561C10.3409 9.85729 10.3582 9.88311 10.3701 9.91157C10.3819 9.94002 10.388 9.97055 10.3879 10.0014C10.3879 10.1289 10.2829 10.2381 10.1526 10.2381C10.0261 10.2381 9.92115 10.1324 9.92115 10.0014C9.92115 9.87036 10.0296 9.76836 10.1525 9.76836ZM10.0514 9.84474V10.165H10.1131V10.038H10.1674C10.1891 10.038 10.1963 10.0452 10.1999 10.0634C10.1999 10.0671 10.2106 10.1471 10.2106 10.1616H10.2756C10.2684 10.1471 10.2648 10.1034 10.2611 10.0779C10.2576 10.0379 10.2541 10.0087 10.2106 10.0051C10.2324 9.99774 10.2685 9.98686 10.2685 9.92861C10.2685 9.84486 10.196 9.84486 10.16 9.84486L10.0514 9.84474ZM10.1058 9.89574H10.1563C10.1745 9.89574 10.2033 9.89574 10.2033 9.93936C10.2033 9.95386 10.1963 9.98324 10.1563 9.98324H10.1056L10.1058 9.89574ZM8.29702 10.147C7.88452 10.147 7.63852 10.3217 7.63852 10.6166C7.63852 10.9334 7.88452 11.0204 8.2789 11.0605C8.75265 11.1079 8.7889 11.1771 8.7889 11.2717C8.7889 11.4355 8.6584 11.5047 8.35452 11.5047C7.97102 11.5047 7.8879 11.41 7.8589 11.2171C7.8589 11.1952 7.84115 11.1809 7.8194 11.1809H7.63127C7.61978 11.181 7.60879 11.1856 7.6007 11.1938C7.59261 11.202 7.58805 11.213 7.58802 11.2245C7.58802 11.472 7.71815 11.7632 8.3514 11.7632C8.80702 11.7632 9.07115 11.581 9.07115 11.2607C9.07115 10.9476 8.86115 10.864 8.4164 10.8057C7.96765 10.7475 7.92077 10.7147 7.92077 10.6092C7.92077 10.5219 7.96052 10.4055 8.29327 10.4055C8.5899 10.4055 8.7019 10.4711 8.7454 10.6712C8.74758 10.6803 8.75266 10.6883 8.75986 10.6942C8.76706 10.7001 8.77599 10.7034 8.78527 10.7037H8.9769C8.9879 10.7037 8.99877 10.6966 9.00615 10.6894C9.01271 10.6796 9.01639 10.6682 9.01677 10.6565C8.9879 10.3071 8.76015 10.147 8.29702 10.147Z" fill="#5FA04E"/>
<path d="M10.759 3.08302C10.7436 3.08279 10.7284 3.08663 10.715 3.09414C10.701 3.10234 10.6894 3.11397 10.6812 3.12793C10.673 3.14188 10.6685 3.15771 10.6681 3.17389V5.54002C10.6681 5.56177 10.6569 5.58377 10.6353 5.59827C10.6253 5.60363 10.6141 5.60643 10.6028 5.60643C10.5914 5.60643 10.5802 5.60363 10.5703 5.59827L10.187 5.37639C10.1589 5.36032 10.127 5.35187 10.0946 5.35187C10.0622 5.35187 10.0304 5.36032 10.0023 5.37639L8.46876 6.26827C8.44038 6.28427 8.41673 6.30748 8.4002 6.33555C8.38368 6.36363 8.37486 6.39557 8.37463 6.42814V8.20814C8.37463 8.27364 8.41088 8.33564 8.46876 8.36839L10.0025 9.26027C10.0306 9.27631 10.0624 9.28475 10.0948 9.28475C10.1272 9.28475 10.159 9.27631 10.1871 9.26027L11.7208 8.36839C11.7786 8.33564 11.8149 8.27364 11.8149 8.20814V3.77102C11.8149 3.70189 11.7786 3.63977 11.7208 3.60714L10.8058 3.09414C10.7913 3.08689 10.7752 3.08308 10.759 3.08302ZM1.71088 5.30377C1.68201 5.30377 1.65313 5.31427 1.62788 5.32877L0.0941321 6.21739C0.0653065 6.2338 0.041384 6.2576 0.0248367 6.28634C0.00828943 6.31509 -0.000282364 6.34773 7.0954e-06 6.38089L0.0037571 8.76864C0.0037571 8.80152 0.0216321 8.83427 0.0506321 8.84889C0.0640761 8.85771 0.0798039 8.86241 0.0958821 8.86241C0.11196 8.86241 0.127688 8.85771 0.141132 8.84889L1.05288 8.32477C1.11076 8.29202 1.14663 8.23002 1.14663 8.16452V7.04702C1.14663 6.98152 1.18288 6.91952 1.24088 6.88677L1.62788 6.66114C1.65676 6.64289 1.68951 6.63564 1.72201 6.63564C1.75451 6.63564 1.78713 6.64289 1.81251 6.66114L2.19951 6.88677C2.25738 6.91952 2.29363 6.98152 2.29363 7.04702V8.16452C2.29363 8.23002 2.32963 8.29202 2.38738 8.32477L3.29188 8.84889C3.30594 8.85786 3.32227 8.86263 3.33894 8.86263C3.35562 8.86263 3.37195 8.85786 3.38601 8.84889C3.40041 8.84106 3.41239 8.82945 3.42068 8.81531C3.42896 8.80117 3.43322 8.78503 3.43301 8.76864V6.38089C3.43301 6.31539 3.39676 6.25339 3.33876 6.22052L1.80876 5.32877C1.78298 5.31509 1.75479 5.30656 1.72576 5.30364L1.71088 5.30377ZM14.2943 5.33002C14.2626 5.33002 14.2313 5.33827 14.2023 5.35477L12.6683 6.24614C12.6104 6.27889 12.5745 6.34089 12.5745 6.40652V8.18652C12.5745 8.25202 12.6104 8.31402 12.6683 8.34677L14.1913 9.22014C14.2187 9.23623 14.2499 9.24471 14.2817 9.24471C14.3135 9.24471 14.3447 9.23623 14.3721 9.22014L15.2946 8.70352C15.309 8.69567 15.321 8.68405 15.3292 8.66991C15.3375 8.65577 15.3417 8.63964 15.3415 8.62327C15.3417 8.60693 15.3374 8.59086 15.3292 8.57677C15.3209 8.56267 15.309 8.55109 15.2946 8.54327L13.7538 7.65127C13.7397 7.64304 13.7281 7.63135 13.7199 7.61732C13.7117 7.60329 13.7072 7.58739 13.7069 7.57114V7.01414C13.7067 6.99781 13.711 6.98173 13.7192 6.96764C13.7275 6.95355 13.7394 6.94197 13.7538 6.93414L14.235 6.65739C14.2491 6.64842 14.2654 6.64366 14.2821 6.64366C14.2987 6.64366 14.3151 6.64842 14.3291 6.65739L14.8099 6.93402C14.824 6.9422 14.8357 6.95387 14.844 6.9679C14.8523 6.98193 14.8568 6.99786 14.8571 7.01414V7.45102C14.8571 7.48389 14.8751 7.51664 14.904 7.53114C14.9181 7.54014 14.9344 7.54492 14.9511 7.54492C14.9678 7.54492 14.9842 7.54014 14.9983 7.53114L15.9096 6.99614C15.9376 6.97983 15.9607 6.95639 15.9766 6.92821C15.9925 6.90002 16.0006 6.86812 16.0001 6.83577V6.40264C16.0001 6.33714 15.9639 6.27552 15.9096 6.24264L14.3866 5.35464C14.3585 5.33857 14.3268 5.33004 14.2944 5.32989L14.2943 5.33002ZM10.0946 6.65927C10.1028 6.65927 10.111 6.66114 10.1184 6.66489L10.6426 6.97064C10.6571 6.97789 10.6645 6.99589 10.6645 7.01052V7.62202C10.6645 7.64027 10.6571 7.65502 10.6426 7.66227L10.1183 7.96802C10.1109 7.97162 10.1028 7.97349 10.0946 7.97349C10.0864 7.97349 10.0784 7.97162 10.071 7.96802L9.54663 7.66227C9.53213 7.65502 9.52476 7.63664 9.52476 7.62202V7.01052C9.52476 6.99227 9.53226 6.97789 9.54663 6.97052L10.071 6.66489C10.0783 6.66108 10.0864 6.65915 10.0946 6.65927Z" fill="#333333"/>
<path d="M5.99772 5.36168C5.96966 5.34553 5.93785 5.33704 5.90547 5.33704C5.8731 5.33704 5.84129 5.34553 5.81322 5.36168L4.29022 6.2463C4.26231 6.26259 4.23923 6.286 4.22333 6.31413C4.20743 6.34226 4.19928 6.37411 4.19972 6.40643V8.17905C4.19972 8.24468 4.23597 8.30655 4.29022 8.3393L5.81322 9.2238C5.84129 9.23995 5.8731 9.24844 5.90547 9.24844C5.93785 9.24844 5.96966 9.23995 5.99772 9.2238L7.5206 8.3393C7.57847 8.30655 7.6111 8.24468 7.6111 8.17905V6.40643C7.6111 6.34093 7.57485 6.27893 7.5206 6.2463L5.99772 5.36168Z" fill="url(#paint0_linear_49_157)"/>
<path d="M7.52424 6.24626L5.99411 5.36163C5.97909 5.35402 5.96335 5.34795 5.94711 5.34351L4.23236 8.29551C4.24686 8.31376 4.26486 8.32826 4.28299 8.33926L5.81324 9.22376C5.85661 9.24926 5.90724 9.25651 5.95424 9.24188L7.56411 6.27901C7.55354 6.26515 7.53989 6.25394 7.52424 6.24626Z" fill="url(#paint1_linear_49_157)"/>
<path d="M7.52422 8.3391C7.56772 8.3136 7.60022 8.26997 7.61472 8.2226L5.93972 5.33972C5.89647 5.33247 5.84935 5.3361 5.8096 5.3616L4.29022 6.24247L5.92897 9.2491C5.9506 9.24547 5.97597 9.23822 5.99772 9.22722L7.52422 8.3391Z" fill="url(#paint2_linear_49_157)"/>
</g>
<defs>
<linearGradient id="paint0_linear_49_157" x1="6.52565" y1="6.02039" x2="5.13479" y2="8.84012" gradientUnits="userSpaceOnUse">
<stop stop-color="#3F873F"/>
<stop offset="0.33" stop-color="#3F8B3D"/>
<stop offset="0.637" stop-color="#3E9638"/>
<stop offset="0.934" stop-color="#3DA92E"/>
<stop offset="1" stop-color="#3DAE2B"/>
</linearGradient>
<linearGradient id="paint1_linear_49_157" x1="5.67405" y1="7.4997" x2="9.5547" y2="4.65009" gradientUnits="userSpaceOnUse">
<stop offset="0.138" stop-color="#3F873F"/>
<stop offset="0.402" stop-color="#52A044"/>
<stop offset="0.713" stop-color="#64B749"/>
<stop offset="0.908" stop-color="#6ABF4B"/>
</linearGradient>
<linearGradient id="paint2_linear_49_157" x1="4.14401" y1="7.29205" x2="7.66806" y2="7.29205" gradientUnits="userSpaceOnUse">
<stop offset="0.092" stop-color="#6ABF4B"/>
<stop offset="0.287" stop-color="#64B749"/>
<stop offset="0.598" stop-color="#52A044"/>
<stop offset="0.862" stop-color="#3F873F"/>
</linearGradient>
<clipPath id="clip0_49_157">
<rect width="16" height="16" fill="white"/>
</clipPath>
</defs>
</svg>
