<svg width="16" height="16" viewBox="0 0 16 16" fill="none" xmlns="http://www.w3.org/2000/svg">
<g clip-path="url(#clip0_52_120)">
<mask id="mask0_52_120" style="mask-type:luminance" maskUnits="userSpaceOnUse" x="0" y="0" width="16" height="16">
<path d="M0 0H16V16H0V0Z" fill="white"/>
</mask>
<g mask="url(#mask0_52_120)">
<path d="M11.0866 11.042C11.6766 10.9807 12.1246 10.4667 12.1046 9.85C12.0947 9.5536 11.9704 9.27254 11.758 9.06565C11.5455 8.85876 11.2612 8.74207 10.9646 8.74H10.9233C10.292 8.76 9.80332 9.29467 9.82332 9.932C9.84465 10.2407 9.96665 10.5073 10.15 10.692C9.45732 12.07 8.39865 13.0767 6.80998 13.9193C5.73132 14.4953 4.61132 14.7007 3.49198 14.5567C2.57532 14.4333 1.86265 14.022 1.41465 13.344C0.763316 12.3373 0.702649 11.2473 1.25198 10.158C1.63865 9.37733 2.24998 8.80133 2.63665 8.514C2.53179 8.16885 2.44347 7.8189 2.37198 7.46533C-0.580684 9.624 -0.274684 12.5427 0.619982 13.92C1.29198 14.948 2.65598 15.5853 4.16332 15.5853C4.5748 15.5878 4.98501 15.5394 5.38465 15.4413C7.99132 14.928 9.96598 13.3653 11.086 11.0427M14.6693 8.494C13.122 6.66467 10.8413 5.65733 8.23532 5.65733H7.90932C7.8163 5.47242 7.67385 5.31691 7.4978 5.20805C7.32175 5.0992 7.11897 5.04126 6.91198 5.04067H6.87065C6.23998 5.06133 5.75065 5.596 5.77132 6.23333C5.79132 6.85 6.30065 7.34267 6.91132 7.34267H6.95265C7.16772 7.33162 7.37534 7.26022 7.55172 7.13666C7.7281 7.0131 7.86613 6.84236 7.94998 6.644H8.31665C9.86398 6.644 11.33 7.096 12.6533 7.98C13.6713 8.65867 14.4046 9.542 14.8113 10.6113C15.158 11.474 15.138 12.3167 14.7713 13.0367C14.2006 14.126 13.244 14.722 11.9813 14.722C11.1673 14.722 10.3933 14.4753 9.98598 14.29C9.69294 14.5515 9.38724 14.7985 9.06998 15.03C9.94532 15.4413 10.8413 15.6673 11.6966 15.6673C13.6513 15.6673 15.0966 14.578 15.6466 13.4887C16.2366 12.2967 16.196 10.2413 14.6693 8.494ZM4.32665 11.3913C4.34665 12.008 4.85598 12.5013 5.46665 12.5013H5.50732C6.13865 12.4813 6.62732 11.9467 6.60732 11.3093C6.59734 11.0129 6.47311 10.7319 6.26063 10.525C6.04815 10.3181 5.76388 10.2014 5.46732 10.1993H5.42598C5.37754 10.1955 5.32885 10.2023 5.28332 10.2193C4.44865 8.822 4.10265 7.30133 4.22465 5.65667C4.30598 4.42333 4.71332 3.35467 5.42598 2.47067C6.01665 1.71067 7.15665 1.34067 7.93065 1.32C10.0886 1.27867 11.0046 3.992 11.066 5.08133C11.3306 5.14267 11.7786 5.28667 12.084 5.38933C11.8393 2.06 9.80398 0.333332 7.84865 0.333332C6.01665 0.333332 4.32665 1.66933 3.65465 3.64267C2.71798 6.27333 3.32865 8.80133 4.46932 10.7953C4.36732 10.9393 4.30598 11.1653 4.32665 11.3913Z" fill="black"/>
</g>
</g>
<defs>
<clipPath id="clip0_52_120">
<rect width="16" height="16" fill="white"/>
</clipPath>
</defs>
</svg>
